<svg width="36" height="36" viewBox="0 0 36 36" fill="none" xmlns="http://www.w3.org/2000/svg">
<circle cx="18" cy="18" r="17.5" stroke="#8C8C8C"/>
<path d="M17.0303 14.5303C17.3232 14.2374 17.3232 13.7626 17.0303 13.4697C16.7374 13.1768 16.2626 13.1768 15.9697 13.4697L11.9697 17.4697C11.8232 17.6161 11.75 17.8081 11.75 18C11.75 18.1017 11.7702 18.1987 11.8069 18.2871C11.8435 18.3755 11.8978 18.4584 11.9697 18.5303L15.9697 22.5303C16.2626 22.8232 16.7374 22.8232 17.0303 22.5303C17.3232 22.2374 17.3232 21.7626 17.0303 21.4697L14.3107 18.75H24C24.4142 18.75 24.75 18.4142 24.75 18C24.75 17.5858 24.4142 17.25 24 17.25H14.3107L17.0303 14.5303Z" fill="#8C8C8C"/>
</svg>
