<svg width="164" height="37" viewBox="0 0 164 37" fill="none" xmlns="http://www.w3.org/2000/svg">
<path d="M90.3484 21.754C90.3484 22.5238 90.294 23.2936 90.1852 24.0634H70.0047C70.1135 25.603 70.5668 26.7577 71.3646 27.5275C72.1987 28.2639 73.2503 28.6321 74.5195 28.6321C76.2964 28.6321 77.5656 27.8957 78.3271 26.423H89.6957C89.2242 28.3643 88.2995 30.1047 86.9215 31.6443C85.5798 33.1505 83.8754 34.3387 81.8084 35.2089C79.7414 36.0791 77.4568 36.5142 74.9547 36.5142C71.9448 36.5142 69.2613 35.9285 66.9042 34.757C64.5834 33.5856 62.7521 31.9121 61.4104 29.7366C60.1049 27.561 59.4521 25.0006 59.4521 22.0552C59.4521 19.1099 60.1049 16.5662 61.4104 14.4241C62.7158 12.2486 64.529 10.5751 66.8498 9.40365C69.207 8.23221 71.9086 7.64648 74.9547 7.64648C77.9645 7.64648 80.6299 8.21547 82.9507 9.35344C85.2716 10.4914 87.0847 12.1314 88.3902 14.2735C89.6957 16.3821 90.3484 18.8756 90.3484 21.754ZM79.4694 19.294C79.4694 18.0891 79.0343 17.1519 78.164 16.4825C77.2936 15.7796 76.2057 15.4282 74.9003 15.4282C73.5948 15.4282 72.525 15.7629 71.691 16.4323C70.8569 17.0682 70.313 18.0221 70.0591 19.294H79.4694Z" fill="#719177"/>
<path d="M111.102 23.5627L117.003 7.64648H128.656L117.967 36.5142L111.102 23.5627Z" fill="#95B79A"/>
<path d="M111.18 23.5627L105.278 7.64648H93.6252L104.314 36.5142H117.968L111.18 23.5627Z" fill="#719177"/>
<path d="M48.1908 7.86705C45.0205 8.39453 42.6575 9.41309 40.8065 11.0319C39.2705 12.3597 38.345 13.6692 37.6164 15.5609C36.6318 18.1073 36.5137 19.5078 36.5137 28.3839V36.5142L41.5744 36.4778L46.6549 36.4233L46.7533 28.2384C46.8518 20.399 46.8715 20.0171 47.2653 19.235C48.053 17.6889 49.3723 16.8341 51.499 16.5249C52.1686 16.4157 52.7987 16.2338 52.8971 16.1065C52.9759 15.9792 54.4971 12.9712 54.4577 10.7158V7.68517L51.2824 7.64879C50.3569 7.6306 48.9785 7.72155 48.1908 7.86705Z" fill="#95B79A"/>
<path d="M49.6802 10.8092C46.4867 11.2825 44.1065 12.1965 42.242 13.649C40.6949 14.8404 39.7626 16.0155 39.0287 17.7129C38.037 19.9978 37.918 21.2545 37.918 29.2189V36.5142L43.0156 36.4816L48.133 36.4326L48.2322 29.0884C48.3314 22.0542 48.3512 21.7114 48.7479 21.0096C49.5413 19.6224 50.8703 18.8553 53.0125 18.5779C53.6869 18.4799 54.3216 18.3167 54.4208 18.2025C54.5001 18.0882 54.4208 16.3372 54.4208 14.3604L54.4584 10.6134H52.7943C51.862 10.5971 50.4736 10.6787 49.6802 10.8092Z" fill="#95B79A"/>
<path d="M145.917 7.66588C142.636 7.9178 139.627 9.07197 137.068 11.0522C135.934 11.9369 134.693 13.2668 133.908 14.4386C133.16 15.5576 132.464 17.0281 132.14 18.1471C132.045 18.4693 131.944 18.7799 131.912 18.8326C131.881 18.8912 131.855 20.2445 131.855 22.0139V25.0838L132.039 25.7459C132.451 27.2281 133.357 29.0736 134.25 30.2454C136.91 33.7372 140.767 35.9107 145.22 36.4263C145.828 36.4966 147.469 36.5142 154.955 36.5142C159.908 36.5142 163.975 36.4908 163.994 36.4673C164.038 36.4029 163.848 35.858 163.525 35.1081C161.618 30.6848 157.539 27.4039 152.675 26.3786C152.339 26.3083 152.061 26.2263 152.061 26.197C152.061 26.1677 154.208 26.1384 157.337 26.1325L162.607 26.115L162.6 23.5957C162.6 21.1937 162.556 20.4027 162.379 19.5239C162.144 18.3522 161.834 17.3972 161.327 16.3016C160.162 13.7882 158.052 11.4682 155.589 9.98593C153.695 8.84934 151.788 8.16973 149.495 7.80649C148.761 7.68931 146.658 7.60729 145.917 7.66588ZM148.07 18.2116C149.229 18.4518 150.407 19.3247 150.921 20.3148C151.345 21.1526 151.332 21.0179 151.351 23.707L151.37 26.156L151.13 26.1208C150.997 26.0974 149.863 26.0622 148.609 26.033C146.385 25.9861 146.316 25.9861 145.822 25.8338C144.023 25.2889 142.813 23.7598 142.819 22.0432C142.819 20.3793 143.972 18.8795 145.663 18.3287C146.474 18.0651 147.19 18.0358 148.07 18.2116Z" fill="#95B79A"/>
<path d="M141.915 22.0537C141.915 25.8153 141.564 31.5209 137.502 31.5209C133.439 31.5209 131.543 25.5428 131.543 21.7813C131.543 18.0197 135.204 10.6113 139.267 10.6113C143.33 10.6113 141.915 18.2921 141.915 22.0537Z" fill="#95B79A"/>
<path d="M14.53 7.66588C11.249 7.9178 8.24044 9.07197 5.68155 11.0522C4.54778 11.9369 3.30634 13.2668 2.52093 14.4386C1.77353 15.5576 1.0768 17.0281 0.753775 18.1471C0.658767 18.4694 0.557425 18.7799 0.525755 18.8326C0.494086 18.8912 0.46875 20.2445 0.46875 22.0139V25.0838L0.652433 25.7459C1.06414 27.2281 1.96988 29.0736 2.86296 30.2454C5.5232 33.7372 9.38054 35.9107 13.8333 36.4263C14.4413 36.4966 16.0818 36.5142 23.5685 36.5142C28.5216 36.5142 28.6933 33.8069 28.7123 33.7835C28.7566 33.719 29.0353 33.8312 28.7123 33.0813C26.8058 28.6579 26.1527 27.4039 21.2883 26.3786C20.9526 26.3083 20.6739 26.2263 20.6739 26.197C20.6739 26.1677 22.8211 26.1384 25.95 26.1325L28.7123 25.7459L27.0739 24.1089C27.0739 21.7068 30.1177 20.3064 29.9404 19.4276C29.706 18.2559 30.0772 17.6364 29.5705 16.5409C28.4051 14.0275 26.6658 11.4682 24.2019 9.98593C22.308 8.84934 20.4015 8.16973 18.1087 7.80649C17.3739 7.68931 15.2711 7.60729 14.53 7.66588ZM16.6835 18.2116C17.8426 18.4518 19.0207 19.3247 19.5338 20.3148C19.9582 21.1526 19.9455 21.0179 19.9645 23.707L19.9835 26.156L19.7428 26.1208C19.6098 26.0974 18.476 26.0622 17.2219 26.033C14.9987 25.9861 14.929 25.9861 14.435 25.8338C12.6362 25.2889 11.4264 23.7598 11.4327 22.0432C11.4327 20.3793 12.5855 18.8795 14.2766 18.3287C15.0874 18.0651 15.8031 18.0358 16.6835 18.2116Z" fill="#719177"/>
<path d="M10.3725 22.0537C10.3725 25.8153 10.0215 31.5209 5.95866 31.5209C1.89585 31.5209 0 25.5428 0 21.7813C0 18.0197 3.66138 10.6113 7.72419 10.6113C11.787 10.6113 10.3725 18.2921 10.3725 22.0537Z" fill="#719177"/>
<rect x="20.1289" width="10.2988" height="36.5138" fill="#719177"/>
</svg>
