<svg width="24" height="24" viewBox="0 0 24 24" fill="none" xmlns="http://www.w3.org/2000/svg">
<path d="M8.04967 19.7185H5.50724C4.12349 19.7155 3.00329 18.6499 3 17.3351V15.5331C3.00321 14.2184 4.12419 13.1528 5.50724 13.1497H8.04967C9.43262 13.1527 10.5536 14.2183 10.5569 15.5331V17.332C10.5553 18.6482 9.43433 19.7156 8.04967 19.7185ZM5.50724 14.3697C4.83386 14.372 4.28822 14.8907 4.28582 15.5308V17.3298C4.28823 17.9707 4.83386 18.4893 5.50724 18.4909H8.04967C8.72305 18.4886 9.26869 17.9699 9.2711 17.3298V15.5331C9.26868 14.893 8.72305 14.3743 8.04967 14.372L5.50724 14.3697Z" fill="black"/>
<path d="M14.0829 15.9709H9.91715C9.56196 15.9709 9.27429 15.6974 9.27429 15.3598C9.27429 15.0221 9.56196 14.7487 9.91715 14.7487H14.0829C14.438 14.7487 14.7257 15.0221 14.7257 15.3598C14.7257 15.6974 14.438 15.9709 14.0829 15.9709Z" fill="black"/>
<path d="M3.71202 15.5217C3.65979 15.5217 3.60836 15.5155 3.55774 15.5041C3.213 15.4239 3.00248 15.0931 3.08684 14.7654L5.02265 7.26096C5.06042 7.10131 5.16488 6.96305 5.31193 6.87673C5.45818 6.79118 5.63496 6.76444 5.8029 6.8034C5.97005 6.84312 6.11388 6.94396 6.20148 7.08527C6.28987 7.22583 6.31478 7.39464 6.27058 7.55277L4.33559 15.0557C4.26568 15.3291 4.00772 15.5217 3.71202 15.5217Z" fill="black"/>
<path d="M5.64695 8.02026C5.58105 8.01949 5.51596 8.00956 5.45409 7.99123C5.11579 7.8881 4.92935 7.54434 5.03785 7.22275C5.32552 6.38783 5.95311 5.69802 6.7816 5.30767C7.53937 4.96927 8.4016 4.90815 9.20348 5.1358C9.36741 5.18163 9.50563 5.28858 9.58759 5.43142C9.66875 5.57503 9.68643 5.7431 9.6366 5.89892C9.58678 6.05475 9.47428 6.18537 9.32242 6.26177C9.17134 6.33816 8.99455 6.35344 8.83064 6.30531C8.33565 6.16476 7.80367 6.20142 7.336 6.40997C6.82492 6.65136 6.4368 7.07685 6.25841 7.59247C6.17484 7.84685 5.92659 8.01949 5.64695 8.02026Z" fill="black"/>
<path d="M18.4927 19.7185H15.9503C14.5657 19.717 13.443 18.6514 13.4399 17.3351V15.5331C13.4432 14.2169 14.5658 13.1512 15.9503 13.1497H18.4927C19.8756 13.1527 20.9966 14.2183 20.9999 15.5331V17.332C20.9983 18.6482 19.8774 19.7156 18.4927 19.7185ZM15.9503 14.3697C15.2753 14.3705 14.728 14.8891 14.7256 15.5308V17.3298C14.728 17.9714 15.2753 18.4901 15.9503 18.4909H18.4927C19.1661 18.4893 19.7117 17.9707 19.7141 17.3298V15.5331C19.7117 14.893 19.1661 14.3743 18.4927 14.372L15.9503 14.3697Z" fill="black"/>
<path d="M20.2881 15.5216C19.9924 15.5216 19.7344 15.3291 19.6645 15.0557L17.7287 7.55277C17.6435 7.22506 17.8549 6.89353 18.1996 6.81334C18.5443 6.73314 18.8931 6.93327 18.9775 7.26098L20.9133 14.7647V14.7654C20.9976 15.0931 20.7871 15.4239 20.4424 15.5041C20.3917 15.5156 20.3403 15.5216 20.2881 15.5216Z" fill="black"/>
<path d="M18.3531 8.02023C18.0735 8.01947 17.8252 7.84683 17.7416 7.59245C17.5632 7.07683 17.1751 6.65134 16.664 6.40918C16.1963 6.20064 15.6644 6.16398 15.1702 6.30453C14.8303 6.40307 14.4711 6.2205 14.3674 5.89814C14.2646 5.57503 14.4558 5.23357 14.7957 5.13503C15.5985 4.90814 16.4607 4.9685 17.2184 5.30614C18.0469 5.69649 18.6761 6.38551 18.9654 7.22045C19.0739 7.54128 18.8874 7.88579 18.5491 7.98817C18.4865 8.00879 18.4198 8.01947 18.3531 8.02023Z" fill="black"/>
</svg>
