<svg width="24" height="24" viewBox="0 0 24 24" fill="none" xmlns="http://www.w3.org/2000/svg">
<path d="M21.9772 7.63196C21.8993 7.29991 21.6533 7.09085 21.432 6.92278C19.907 5.76269 18.1853 4.85265 16.3202 4.21726C16.3038 4.20906 16.2874 4.20496 16.2669 4.19677C16.2628 4.19677 16.1275 4.15167 15.9389 4.09018C15.7996 4.04919 15.734 4.02869 15.734 4.02869C15.6643 4.0082 15.5905 4 15.5208 4C15.1478 4 14.828 4.27055 14.7625 4.64359C14.6805 5.1232 14.3279 6.47186 13.7048 6.95148C13.2129 7.33271 12.6513 7.52537 12.0323 7.52537H12.0118C12.0077 7.52537 12.0077 7.52537 12.0036 7.52537H11.9831C11.3642 7.52537 10.7985 7.33271 10.3106 6.95148C9.69165 6.46776 9.33911 5.1232 9.25303 4.64359C9.18744 4.27055 8.87179 4 8.49466 4C8.42087 4 8.35119 4.0082 8.2815 4.02869C8.2815 4.02869 8.21591 4.04919 8.07653 4.09018C7.88797 4.14757 7.75679 4.19267 7.75269 4.19677C7.74039 4.20086 7.7281 4.20496 7.7199 4.20906C5.84243 4.83625 4.08794 5.76679 2.50972 6.97197C1.97682 7.3778 1.86614 7.83282 2.15719 8.44771C2.70649 9.6201 3.12871 10.5137 3.53044 11.3541C3.61243 11.5222 3.85428 12.0387 4.51837 12.0387C4.61675 12.0387 4.72333 12.0264 4.84631 12.0059C5.40381 11.8993 5.94901 11.7927 6.52701 11.6861C6.54341 11.682 6.5639 11.6779 6.5803 11.6738V13.4201C6.5803 15.6337 6.5803 17.8514 6.5803 20.065C6.5803 20.8316 6.99843 21.2538 7.76089 21.2538C9.13005 21.2538 10.4951 21.2538 11.8643 21.2538H16.1972C17.0252 21.2538 17.427 20.848 17.427 20.0118V11.6697L17.4926 11.682C18.0501 11.7886 18.5953 11.8911 19.1405 11.9936C19.2757 12.0182 19.3864 12.0305 19.493 12.0305C20.153 12.0305 20.3949 11.5181 20.485 11.3254C20.9605 10.3252 21.3951 9.40284 21.8173 8.5092C21.9321 8.25914 22.051 7.9599 21.9772 7.63196ZM20.813 8.03778C20.3908 8.93142 19.9562 9.85376 19.4807 10.854C19.4643 10.8868 19.452 10.9073 19.4438 10.9237C19.4192 10.9196 19.3864 10.9155 19.3413 10.9073C18.7961 10.8048 18.2509 10.6982 17.6934 10.5957L16.972 10.4605C16.8121 10.4277 16.644 10.4728 16.5169 10.5793C16.3899 10.6859 16.3161 10.8417 16.3161 11.0057V20.0159C16.3161 20.0732 16.312 20.1142 16.312 20.147C16.2833 20.1511 16.2464 20.1511 16.1931 20.1511H11.8602C10.491 20.1511 9.12595 20.1511 7.75679 20.1511C7.7281 20.1511 7.7035 20.1511 7.683 20.147C7.683 20.1265 7.67891 20.0978 7.67891 20.065C7.67891 17.8514 7.67891 15.6337 7.67891 13.4201V11.0057C7.67891 10.8417 7.60512 10.6859 7.47804 10.5793C7.35096 10.4728 7.18289 10.4318 7.02302 10.4605C6.78526 10.5055 6.54751 10.5506 6.31385 10.5957C5.73585 10.7064 5.18655 10.8089 4.62905 10.9196C4.59625 10.9278 4.57166 10.9278 4.55116 10.9319C4.54296 10.9196 4.53476 10.9032 4.52656 10.8827C4.12894 10.0423 3.70671 9.14869 3.15741 7.98039C3.14101 7.9476 3.13281 7.923 3.12461 7.90251C3.14101 7.89021 3.15741 7.87381 3.182 7.85742C4.67004 6.72192 6.32615 5.84877 8.09703 5.25848C8.10933 5.25438 8.11753 5.25028 8.12573 5.24618C8.12983 5.24618 8.12983 5.24618 8.13392 5.24208C8.15442 5.23388 8.19541 5.22158 8.2446 5.20519C8.40038 5.86107 8.8062 7.18513 9.63426 7.82872C10.3229 8.36572 11.1141 8.63628 11.9872 8.63628H12.0118H12.0364C12.9096 8.63628 13.7007 8.36572 14.3894 7.82872C15.2216 7.18104 15.6233 5.86107 15.7791 5.20519C15.8283 5.22158 15.8652 5.23388 15.8857 5.24208C15.902 5.25028 15.9184 5.25438 15.9348 5.26258C17.6975 5.86107 19.3208 6.71782 20.7597 7.80822C20.813 7.84922 20.8458 7.87791 20.8704 7.89841C20.8622 7.9271 20.8417 7.97219 20.813 8.03778Z" fill="black"/>
</svg>
