<svg width="18" height="18" viewBox="0 0 18 18" fill="none" xmlns="http://www.w3.org/2000/svg">
<path d="M6.06839 0.227574C4.7049 0.0751837 3.29585 0.0751837 1.93236 0.227574C1.05518 0.325612 0.345877 1.01637 0.242435 1.9008C0.0793447 3.29522 0.0793447 4.70389 0.242435 6.09831C0.345877 6.98275 1.05518 7.6735 1.93236 7.77154C3.29585 7.92393 4.7049 7.92393 6.06839 7.77154C6.94557 7.6735 7.65487 6.98275 7.75831 6.09831C7.9214 4.70389 7.9214 3.29522 7.75831 1.9008C7.65487 1.01637 6.94557 0.325612 6.06839 0.227574Z" fill="black"/>
<path d="M6.06839 10.2276C4.7049 10.0752 3.29585 10.0752 1.93236 10.2276C1.05518 10.3256 0.345877 11.0164 0.242435 11.9008C0.0793447 13.2952 0.0793447 14.7039 0.242435 16.0983C0.345877 16.9827 1.05518 17.6735 1.93236 17.7715C3.29585 17.9239 4.7049 17.9239 6.06839 17.7715C6.94557 17.6735 7.65487 16.9827 7.75831 16.0983C7.9214 14.7039 7.9214 13.2952 7.75831 11.9008C7.65487 11.0164 6.94557 10.3256 6.06839 10.2276Z" fill="black"/>
<path d="M16.0684 0.227574C14.7049 0.0751837 13.2959 0.0751837 11.9324 0.227574C11.0552 0.325612 10.3459 1.01637 10.2424 1.9008C10.0794 3.29522 10.0794 4.70389 10.2424 6.09831C10.3459 6.98275 11.0552 7.6735 11.9324 7.77154C13.2959 7.92393 14.7049 7.92393 16.0684 7.77154C16.9456 7.6735 17.6549 6.98275 17.7583 6.09831C17.9214 4.70389 17.9214 3.29522 17.7583 1.9008C17.6549 1.01637 16.9456 0.325612 16.0684 0.227574Z" fill="black"/>
<path d="M16.0684 10.2276C14.7049 10.0752 13.2959 10.0752 11.9324 10.2276C11.0552 10.3256 10.3459 11.0164 10.2424 11.9008C10.0794 13.2952 10.0794 14.7039 10.2424 16.0983C10.3459 16.9827 11.0552 17.6735 11.9324 17.7715C13.2959 17.9239 14.7049 17.9239 16.0684 17.7715C16.9456 17.6735 17.6549 16.9827 17.7583 16.0983C17.9214 14.7039 17.9214 13.2952 17.7583 11.9008C17.6549 11.0164 16.9456 10.3256 16.0684 10.2276Z" fill="black"/>
</svg>
