<svg width="24" height="24" viewBox="0 0 24 24" fill="none" xmlns="http://www.w3.org/2000/svg">
<path fill-rule="evenodd" clip-rule="evenodd" d="M5.58639 6.37958C5.58639 5.94152 5.94152 5.58639 6.37958 5.58639H11.2749C11.4852 5.58639 11.6869 5.66996 11.8357 5.81871L18.1813 12.1643C18.491 12.474 18.491 12.9763 18.1813 13.286L13.286 18.1813C12.9763 18.491 12.474 18.491 12.1643 18.1813L5.81871 11.8357C5.66996 11.6869 5.58639 11.4852 5.58639 11.2749V6.37958ZM6.37958 4C5.06538 4 4 5.06538 4 6.37958V11.2749C4 11.9059 4.2507 12.5112 4.69696 12.9575L11.0425 19.303C11.9718 20.2323 13.4784 20.2323 14.4077 19.303L19.303 14.4077C20.2323 13.4784 20.2323 11.9718 19.303 11.0425L12.9575 4.69696C12.5112 4.2507 11.9059 4 11.2749 4H6.37958ZM8.75917 10.3456C9.6353 10.3456 10.3456 9.6353 10.3456 8.75917C10.3456 7.88303 9.6353 7.17278 8.75917 7.17278C7.88303 7.17278 7.17278 7.88303 7.17278 8.75917C7.17278 9.6353 7.88303 10.3456 8.75917 10.3456Z" fill="black"/>
</svg>
