<svg width="24" height="24" viewBox="0 0 24 24" fill="none" xmlns="http://www.w3.org/2000/svg">
<path d="M3.64286 15.4138C3.64286 17.0309 4.72016 18.4081 6.21429 18.9209V20.3793C6.21429 20.7212 6.50307 21 6.85714 21C7.21122 21 7.5 20.7212 7.5 20.3793V19.1379H16.5V20.3793C16.5 20.7212 16.7888 21 17.1429 21C17.4969 21 17.7857 20.7212 17.7857 20.3793V18.9209C19.2798 18.4094 20.3571 17.031 20.3571 15.4138V13.7505C20.7715 13.2571 21 12.6461 21 12C21 11.2241 20.656 10.4725 20.0583 9.94273C19.6854 9.6142 19.2321 9.38386 18.75 9.27841V6.72413C18.75 4.66931 17.0211 3 14.8929 3H9.10714C6.97893 3 5.25 4.66931 5.25 6.72413V9.27841C4.7641 9.38751 4.31082 9.61299 3.93918 9.94273C3.34152 10.4701 3 11.2217 3 12C3 12.6449 3.22475 13.2571 3.64286 13.7505V15.4138ZM6.53571 6.72413C6.53571 5.35545 7.68958 4.24138 9.10714 4.24138H14.8929C16.3104 4.24138 17.4643 5.35545 17.4643 6.72413V9.28083C16.1748 9.57299 15.2143 10.7331 15.2143 12.08V13.5505H8.78571V12.08C8.78571 10.7295 7.82519 9.56936 6.53571 9.28083V6.72413ZM4.80929 10.8579C5.10561 10.5936 5.49734 10.4518 5.89536 10.4518C5.94308 10.4518 5.98828 10.4518 6.03725 10.4578C6.85715 10.5257 7.5 11.2398 7.5 12.0835V13.554C7.5 14.2402 8.07507 14.7954 8.78572 14.7954H15.2143C15.9249 14.7954 16.5 14.2402 16.5 13.554V12.0835C16.5 11.2398 17.1429 10.5258 17.9653 10.4578C18.406 10.4203 18.8555 10.567 19.1895 10.8615C19.5235 11.1561 19.713 11.572 19.713 12.0035C19.713 12.4351 19.5561 12.7891 19.256 13.08L19.0702 13.2595V15.4137C19.0702 16.7824 17.9163 17.8964 16.4987 17.8964H7.49874C6.08118 17.8964 4.92731 16.7824 4.92731 15.4137V13.2595L4.74149 13.08C4.44266 12.7879 4.28445 12.4157 4.28445 12.0035C4.28445 11.572 4.47404 11.1537 4.80803 10.8615L4.80929 10.8579Z" fill="black"/>
</svg>
