<svg width="24" height="24" viewBox="0 0 24 24" fill="none" xmlns="http://www.w3.org/2000/svg">
<path fill-rule="evenodd" clip-rule="evenodd" d="M11.1987 2.58716C11.6971 2.3103 12.303 2.3103 12.8013 2.58716L20.0013 6.58716C20.5252 6.87817 20.85 7.43029 20.85 8.02952V15.9704C20.85 16.5696 20.5252 17.1217 20.0013 17.4128L12.8013 21.4128C12.303 21.6896 11.6971 21.6896 11.1987 21.4128L3.99871 17.4128C3.47489 17.1217 3.15002 16.5696 3.15002 15.9704V8.02952C3.15002 7.43029 3.4749 6.87817 3.99871 6.58716L11.1987 2.58716ZM12.0729 3.89839C12.0276 3.87322 11.9725 3.87322 11.9272 3.89839L4.72718 7.89839C4.67956 7.92485 4.65002 7.97504 4.65002 8.02952V15.9704C4.65002 16.0249 4.67956 16.0751 4.72718 16.1015L11.9272 20.1015C11.9725 20.1267 12.0276 20.1267 12.0729 20.1015L19.2729 16.1015C19.3205 16.0751 19.35 16.0249 19.35 15.9704V8.02952C19.35 7.97504 19.3205 7.92485 19.2729 7.89839L12.0729 3.89839Z" fill="black"/>
<path fill-rule="evenodd" clip-rule="evenodd" d="M7.25002 12C7.25002 9.3766 9.37667 7.24995 12 7.24995C14.6234 7.24995 16.75 9.3766 16.75 12C16.75 14.6233 14.6234 16.75 12 16.75C9.37667 16.75 7.25002 14.6233 7.25002 12ZM12 8.74995C10.2051 8.74995 8.75002 10.205 8.75002 12C8.75002 13.7949 10.2051 15.25 12 15.25C13.795 15.25 15.25 13.7949 15.25 12C15.25 10.205 13.795 8.74995 12 8.74995Z" fill="black"/>
</svg>
