<svg width="18" height="20" viewBox="0 0 18 20" fill="none" xmlns="http://www.w3.org/2000/svg">
<path fill-rule="evenodd" clip-rule="evenodd" d="M8.19859 0.587523C8.69693 0.310669 9.30288 0.31067 9.80121 0.587523L17.0012 4.58752C17.525 4.87853 17.8499 5.43066 17.8499 6.02988V13.9708C17.8499 14.57 17.525 15.1221 17.0012 15.4131L9.80122 19.4131C9.30288 19.69 8.69693 19.69 8.19859 19.4131L0.998591 15.4131C0.474772 15.1221 0.149902 14.57 0.149902 13.9708V6.02988C0.149902 5.43066 0.474774 4.87853 0.998592 4.58752L8.19859 0.587523ZM9.07275 1.89876C9.02745 1.87359 8.97236 1.87359 8.92706 1.89876L1.72706 5.89876C1.67944 5.92522 1.6499 5.97541 1.6499 6.02988V13.9708C1.6499 14.0252 1.67944 14.0754 1.72705 14.1019L8.92706 18.1019C8.97236 18.1271 9.02745 18.1271 9.07275 18.1019L16.2728 14.1019C16.3204 14.0754 16.3499 14.0252 16.3499 13.9708V6.02988C16.3499 5.97541 16.3204 5.92521 16.2728 5.89876L9.07275 1.89876Z" fill="#719177"/>
<path fill-rule="evenodd" clip-rule="evenodd" d="M4.2499 10.0003C4.2499 7.37697 6.37655 5.25032 8.9999 5.25032C11.6233 5.25032 13.7499 7.37697 13.7499 10.0003C13.7499 12.6237 11.6233 14.7503 8.9999 14.7503C6.37655 14.7503 4.2499 12.6237 4.2499 10.0003ZM8.9999 6.75032C7.20498 6.75032 5.7499 8.20539 5.7499 10.0003C5.7499 11.7952 7.20498 13.2503 8.9999 13.2503C10.7948 13.2503 12.2499 11.7952 12.2499 10.0003C12.2499 8.20539 10.7948 6.75032 8.9999 6.75032Z" fill="#719177"/>
</svg>
