<svg width="24" height="24" viewBox="0 0 24 24" fill="none" xmlns="http://www.w3.org/2000/svg">
<path d="M11.703 5.61552C11.7322 4.71109 11.9813 3.37876 12.8483 2.50347C13.6531 1.69099 14.6328 1.29501 15.243 1.11398C15.4786 1.04409 15.7046 1.22174 15.693 1.46719C15.6522 2.33299 15.4245 3.62437 14.8371 4.3162C14.2834 4.96836 13.3927 5.83317 12.088 5.97868C11.8744 6.00249 11.6961 5.83028 11.703 5.61552Z" fill="black"/>
<path d="M13.9371 22.1694C14.5636 22.4094 15.197 22.6521 15.7703 22.6521C16.9967 22.6521 20.5678 19.8225 20.6964 16.8837C20.7031 16.7328 20.6129 16.598 20.4811 16.5242C19.5727 16.0159 18.0893 14.7502 18.0377 12.9089C17.9775 10.763 19.0549 9.05867 19.8704 8.35364C20.0539 8.19497 20.1169 7.91519 19.9531 7.73626C19.2112 6.92606 17.7186 5.8116 16.3569 5.83896C15.3661 5.85886 14.4735 6.22791 13.7075 6.5446C13.1198 6.78756 12.6067 6.9997 12.181 6.9997C11.7778 6.9997 11.2938 6.78892 10.7383 6.547C9.99021 6.22122 9.11242 5.83896 8.12774 5.83896C6.30381 5.83896 2.70002 7.35143 2.70001 13.1903C2.70001 16.2856 5.89537 22.7341 8.59172 22.6521C9.17396 22.6521 9.79619 22.411 10.4136 22.1717C11.0217 21.9362 11.625 21.7024 12.181 21.7024C12.7178 21.7024 13.3241 21.9346 13.9371 22.1694Z" fill="black"/>
</svg>
