<svg width="1051" height="234" viewBox="0 0 1051 234" fill="none" xmlns="http://www.w3.org/2000/svg">
<path d="M579 139.409C579 144.342 578.651 149.275 577.954 154.209H448.627C449.324 164.075 452.229 171.475 457.342 176.409C462.687 181.128 469.426 183.487 477.56 183.487C488.947 183.487 497.081 178.768 501.961 169.33H574.817C571.796 181.771 565.87 192.925 557.039 202.791C548.44 212.443 537.518 220.058 524.271 225.635C511.025 231.212 496.384 234 480.349 234C461.06 234 443.863 230.246 428.757 222.739C413.884 215.232 402.148 204.507 393.549 190.565C385.183 176.623 381 160.214 381 141.339C381 122.464 385.183 106.162 393.549 92.4348C401.915 78.4927 413.535 67.7681 428.408 60.2609C443.514 52.7536 460.827 49 480.349 49C499.637 49 516.718 52.6464 531.592 59.9391C546.465 67.2319 558.085 77.742 566.451 91.4696C574.817 104.983 579 120.962 579 139.409ZM509.282 123.643C509.282 115.922 506.493 109.916 500.916 105.626C495.338 101.122 488.366 98.8696 480 98.8696C471.634 98.8696 464.778 101.014 459.433 105.304C454.088 109.38 450.602 115.493 448.975 123.643H509.282Z" fill="#E5E3E3"/>
<path d="M712 151L749.82 49H824.5L756 234L712 151Z" fill="white"/>
<path d="M712.5 151L674.68 49H600L668.5 234H756L712.5 151Z" fill="#E5E3E3"/>
<path d="M308.834 50.4135C288.516 53.7939 273.373 60.3214 261.511 70.6955C251.667 79.2046 245.736 87.5971 241.067 99.7196C234.757 116.038 234 125.014 234 181.896V234L266.432 233.767L298.99 233.417L299.621 180.964C300.252 130.725 300.379 128.278 302.902 123.265C307.95 113.357 316.405 107.879 330.034 105.897C334.325 105.198 338.363 104.032 338.994 103.217C339.499 102.401 349.248 83.1238 348.995 68.67V49.2479L328.646 49.0148C322.715 48.8982 313.881 49.481 308.834 50.4135Z" fill="white"/>
<path d="M318.379 69.2684C297.913 72.3015 282.66 78.1586 270.711 87.4673C260.796 95.1025 254.822 102.633 250.118 113.511C243.763 128.153 243 136.207 243 187.248V234L275.668 233.791L308.464 233.477L309.099 186.411C309.735 141.332 309.862 139.135 312.404 134.638C317.489 125.748 326.005 120.832 339.734 119.054C344.056 118.426 348.123 117.38 348.759 116.648C349.267 115.916 348.759 104.695 348.759 92.0263L349 68.0133H338.335C332.361 67.9087 323.463 68.4316 318.379 69.2684Z" fill="white"/>
<path d="M935.112 49.1243C914.086 50.7388 894.805 58.1353 878.406 70.8258C871.141 76.4952 863.185 85.0181 858.152 92.5273C853.362 99.6985 848.897 109.123 846.827 116.294C846.218 118.359 845.568 120.349 845.365 120.687C845.162 121.062 845 129.735 845 141.074V160.748L846.177 164.991C848.816 174.49 854.62 186.317 860.343 193.826C877.392 216.203 902.112 230.133 930.647 233.437C934.544 233.887 945.057 234 993.036 234C1024.78 234 1050.84 233.85 1050.96 233.7C1051.24 233.287 1050.03 229.795 1047.96 224.989C1035.74 196.642 1009.6 175.616 978.423 169.046C976.272 168.595 974.486 168.07 974.486 167.882C974.486 167.694 988.246 167.506 1008.3 167.469L1042.07 167.356L1042.03 151.211C1042.03 135.818 1041.74 130.749 1040.61 125.117C1039.11 117.608 1037.12 111.488 1033.87 104.467C1026.4 88.3597 1012.88 73.4915 997.095 63.9924C984.958 56.7086 972.74 52.3532 958.046 50.0254C953.338 49.2745 939.861 48.7488 935.112 49.1243ZM948.913 116.707C956.341 118.246 963.891 123.841 967.179 130.186C969.899 135.555 969.818 134.691 969.939 151.925L970.061 167.619L968.519 167.394C967.666 167.244 960.4 167.018 952.363 166.83C938.116 166.53 937.669 166.53 934.503 165.554C922.975 162.062 915.223 152.263 915.263 141.262C915.263 130.599 922.651 120.987 933.489 117.458C938.684 115.768 943.271 115.58 948.913 116.707Z" fill="white"/>
<path d="M909.473 141.329C909.473 165.435 907.223 202 881.186 202C855.15 202 843 163.689 843 139.583C843 115.477 866.464 68 892.501 68C918.538 68 909.473 117.223 909.473 141.329Z" fill="white"/>
<path d="M93.1122 49.1243C72.086 50.7388 52.8053 58.1353 36.4065 70.8258C29.1407 76.4952 21.1848 85.0181 16.1515 92.5273C11.3618 99.6985 6.89674 109.123 4.8266 116.294C4.21773 118.359 3.56828 120.349 3.36532 120.687C3.16236 121.062 3 129.735 3 141.074V160.748L4.17714 164.991C6.81556 174.49 12.6201 186.317 18.3434 193.826C35.3917 216.203 60.1116 230.133 88.6472 233.437C92.5439 233.887 103.057 234 151.036 234C182.778 234 183.878 216.65 184 216.5C184.284 216.087 186.07 216.806 184 212C171.782 183.653 167.597 175.616 136.423 169.046C134.272 168.595 132.486 168.07 132.486 167.882C132.486 167.694 146.246 167.506 166.298 167.469L184 164.991L173.5 154.5C173.5 139.106 193.007 130.132 191.87 124.5C190.368 116.991 192.747 113.021 189.5 106C182.031 89.8928 170.885 73.4915 155.095 63.9924C142.958 56.7086 130.74 52.3532 116.046 50.0254C111.338 49.2745 97.8613 48.7488 93.1122 49.1243ZM106.913 116.707C114.341 118.246 121.891 123.841 125.179 130.186C127.899 135.555 127.818 134.691 127.939 151.925L128.061 167.619L126.519 167.394C125.666 167.244 118.4 167.018 110.363 166.83C96.1159 166.53 95.6694 166.53 92.5033 165.554C80.9755 162.062 73.2226 152.263 73.2632 141.262C73.2632 130.599 80.6507 120.987 91.4885 117.458C96.6842 115.768 101.271 115.58 106.913 116.707Z" fill="#E5E3E3"/>
<path d="M66.4725 141.329C66.4725 165.435 64.2231 202 38.1863 202C12.1496 202 0 163.689 0 139.583C0 115.477 23.4641 68 49.5008 68C75.5375 68 66.4725 117.223 66.4725 141.329Z" fill="#E5E3E3"/>
<rect x="129" width="66" height="234" fill="#E5E3E3"/>
</svg>
