<svg width="23" height="24" viewBox="0 0 23 24" fill="none" xmlns="http://www.w3.org/2000/svg">
<g clip-path="url(#clip0_523_1128)">
<path d="M22.9878 12.2242C22.9878 11.2409 22.9096 10.5234 22.7403 9.7793H11.7291V14.2173H18.1924C18.0621 15.3202 17.3585 16.9811 15.7947 18.0972L15.7728 18.2458L19.2543 20.996L19.4955 21.0205C21.7108 18.9344 22.9878 15.8649 22.9878 12.2242Z" fill="#4285F4"/>
<path d="M11.7291 23.9178C14.8956 23.9178 17.5539 22.8548 19.4955 21.0211L15.7947 18.0978C14.8044 18.8021 13.4752 19.2937 11.7291 19.2937C8.62773 19.2937 5.99549 17.2076 5.05717 14.3242L4.91963 14.3361L1.29948 17.193L1.25214 17.3271C3.1807 21.2337 7.14213 23.9178 11.7291 23.9178Z" fill="#34A853"/>
<path d="M5.05716 14.3238C4.80958 13.5797 4.66629 12.7824 4.66629 11.9586C4.66629 11.1347 4.80958 10.3375 5.04414 9.59342L5.03758 9.43494L1.37206 6.53223L1.25214 6.59039C0.45728 8.21149 0.00119019 10.0319 0.00119019 11.9586C0.00119019 13.8853 0.45728 15.7056 1.25214 17.3267L5.05716 14.3238Z" fill="#FBBC05"/>
<path d="M11.7291 4.62403C13.9313 4.62403 15.4168 5.59401 16.2638 6.40461L19.5737 3.10928C17.5409 1.1826 14.8956 0 11.7291 0C7.14213 0 3.1807 2.68406 1.25214 6.59056L5.04414 9.59359C5.99549 6.7102 8.62773 4.62403 11.7291 4.62403Z" fill="#EB4335"/>
</g>
<defs>
<clipPath id="clip0_523_1128">
<rect width="23" height="24" fill="white"/>
</clipPath>
</defs>
</svg>
