<svg width="800" height="800" viewBox="0 0 800 800" fill="none" xmlns="http://www.w3.org/2000/svg">
<g clip-path="url(#clip0_1299_1477)">
<path d="M601.068 558.885C773.928 367.345 735.98 3.53645 735.98 3.53645C735.98 3.53645 372.176 -34.4113 180.632 138.445C39.2199 266.061 39.8838 410.752 94.7398 531.64C97.1118 528.244 99.4919 524.845 101.912 521.377C108.08 512.245 115.232 503.457 122.084 494.181C129.028 484.957 136.064 475.516 143.792 466.368C151.364 457.128 159.076 447.745 166.876 438.237C175.032 429.073 183.292 419.788 191.62 410.432C195.788 405.788 199.98 401.12 204.184 396.432C208.564 391.916 212.964 387.397 217.368 382.857C226.18 373.821 235.024 364.749 243.864 355.685C253.072 347.005 262.3 338.341 271.468 329.697C276.06 325.393 280.632 321.093 285.196 316.813C289.784 312.565 294.652 308.621 299.332 304.549C318.224 288.401 336.496 272.253 355.464 258.153C364.772 250.937 373.928 243.841 382.892 236.897C391.88 230.021 401.192 223.941 409.964 217.689C427.676 205.389 444.108 193.437 460.292 183.853C462.944 182.205 466.42 182.92 468.208 185.484C469.988 188.048 469.452 191.556 466.984 193.472C466.86 193.568 466.74 193.665 466.624 193.753C451.528 205.029 436.368 218.653 420.032 232.757C411.952 239.897 403.348 246.925 395.092 254.697C386.892 262.533 378.512 270.541 370.004 278.681C352.624 294.661 336.068 312.564 318.96 330.536C314.728 335.056 310.332 339.489 306.168 344.145C302.076 348.857 297.968 353.588 293.848 358.328C285.608 367.828 277.352 377.357 269.076 386.893C261.212 396.773 253.36 406.661 245.52 416.501C241.608 421.433 237.696 426.353 233.808 431.269C230.108 436.325 226.42 441.365 222.736 446.385C215.416 456.469 208.164 466.469 200.984 476.368C194.208 486.536 187.508 496.593 180.928 506.493C174.18 516.289 168.144 526.317 162.18 536.113C156.312 545.973 150.136 555.344 144.908 564.972C139.56 574.54 134.364 583.836 129.34 592.828C124.364 601.876 120 610.889 115.576 619.405C113.396 623.685 111.256 627.869 109.164 631.965C107.22 636.153 105.32 640.241 103.452 644.221C99.7837 652.225 96.1357 659.713 93.0037 666.949C86.8797 681.577 81.4318 693.94 77.3358 705.556C75.2718 711.152 73.4357 716.153 71.8277 720.497C70.5317 724.461 69.4158 727.833 68.5198 730.565C66.7198 736.045 65.7559 738.961 65.7559 738.961C65.5079 739.729 65.2399 740.649 65.0279 741.429C58.3599 766.225 73.0639 791.74 97.8719 798.4C122.676 805.056 148.168 790.348 154.844 765.556L154.888 765.393C154.888 765.393 155.688 762.425 157.172 756.861C157.924 754.085 158.84 750.653 159.924 746.613C161.028 743.065 162.312 738.992 163.736 734.42C166.264 725.576 170.684 713.773 175.388 700.501C177.824 693.845 180.792 686.837 183.704 679.393C185.196 675.681 186.728 671.865 188.28 667.965C189.992 664.109 191.74 660.157 193.532 656.121C195.712 651.285 197.92 646.253 200.18 641.153C322.584 699.533 470.728 703.321 601.068 558.885Z" fill="#719177"/>
</g>
<defs>
<clipPath id="clip0_1299_1477">
<rect width="800" height="800" fill="white"/>
</clipPath>
</defs>
</svg>
