<svg width="20" height="20" viewBox="0 0 20 20" fill="none" xmlns="http://www.w3.org/2000/svg">
<path fill-rule="evenodd" clip-rule="evenodd" d="M6.92955 2.46984C5.65833 2.32776 4.34242 2.32776 3.0712 2.46984C2.76231 2.50436 2.51872 2.74895 2.48397 3.04601C2.33217 4.34395 2.33217 5.65516 2.48397 6.9531C2.51872 7.25016 2.76231 7.49475 3.0712 7.52927C4.34242 7.67135 5.65833 7.67135 6.92955 7.52927C7.23844 7.49475 7.48203 7.25016 7.51678 6.9531C7.66858 5.65516 7.66858 4.34395 7.51678 3.04601C7.48203 2.74895 7.23844 2.50436 6.92955 2.46984ZM2.90459 0.979121C4.28654 0.824668 5.71421 0.824668 7.09616 0.979121C8.087 1.08986 8.88944 1.86985 9.00662 2.87176C9.17197 4.28547 9.17197 5.71364 9.00662 7.12735C8.88944 8.12926 8.087 8.90925 7.09616 9.01999C5.71421 9.17444 4.28654 9.17444 2.90459 9.01999C1.91375 8.90925 1.11131 8.12926 0.994127 7.12735C0.828781 5.71364 0.828781 4.28547 0.994127 2.87176C1.11131 1.86985 1.91375 1.08986 2.90459 0.979121Z" fill="black"/>
<path fill-rule="evenodd" clip-rule="evenodd" d="M6.92955 12.4698C5.65833 12.3278 4.34242 12.3278 3.0712 12.4698C2.76231 12.5044 2.51872 12.749 2.48397 13.046C2.33217 14.344 2.33217 15.6552 2.48397 16.9531C2.51872 17.2502 2.76231 17.4948 3.0712 17.5293C4.34242 17.6714 5.65833 17.6714 6.92955 17.5293C7.23844 17.4948 7.48203 17.2502 7.51678 16.9531C7.66858 15.6552 7.66858 14.344 7.51678 13.046C7.48203 12.749 7.23844 12.5044 6.92955 12.4698ZM2.90459 10.9791C4.28654 10.8247 5.71421 10.8247 7.09616 10.9791C8.087 11.0899 8.88944 11.8698 9.00662 12.8718C9.17197 14.2855 9.17197 15.7136 9.00662 17.1274C8.88944 18.1293 8.087 18.9093 7.09616 19.02C5.71421 19.1744 4.28654 19.1744 2.90459 19.02C1.91375 18.9093 1.11131 18.1293 0.994127 17.1274C0.828781 15.7136 0.828781 14.2855 0.994127 12.8718C1.11131 11.8699 1.91375 11.0899 2.90459 10.9791Z" fill="black"/>
<path fill-rule="evenodd" clip-rule="evenodd" d="M16.9295 2.46984C15.6583 2.32776 14.3424 2.32776 13.0712 2.46984C12.7623 2.50436 12.5187 2.74895 12.484 3.04601C12.3322 4.34395 12.3322 5.65516 12.484 6.9531C12.5187 7.25016 12.7623 7.49475 13.0712 7.52927C14.3424 7.67135 15.6583 7.67135 16.9295 7.52927C17.2384 7.49475 17.482 7.25016 17.5168 6.9531C17.6686 5.65516 17.6686 4.34395 17.5168 3.04601C17.482 2.74895 17.2384 2.50436 16.9295 2.46984ZM12.9046 0.979121C14.2865 0.824668 15.7142 0.824668 17.0962 0.979121C18.087 1.08986 18.8894 1.86985 19.0066 2.87176C19.172 4.28547 19.172 5.71364 19.0066 7.12735C18.8894 8.12926 18.087 8.90925 17.0962 9.01999C15.7142 9.17444 14.2865 9.17444 12.9046 9.01999C11.9138 8.90925 11.1113 8.12926 10.9941 7.12735C10.8288 5.71364 10.8288 4.28547 10.9941 2.87176C11.1113 1.86985 11.9138 1.08986 12.9046 0.979121Z" fill="black"/>
<path fill-rule="evenodd" clip-rule="evenodd" d="M16.9295 12.4698C15.6583 12.3278 14.3424 12.3278 13.0712 12.4698C12.7623 12.5044 12.5187 12.749 12.484 13.046C12.3322 14.344 12.3322 15.6552 12.484 16.9531C12.5187 17.2502 12.7623 17.4948 13.0712 17.5293C14.3424 17.6714 15.6583 17.6714 16.9295 17.5293C17.2384 17.4948 17.482 17.2502 17.5168 16.9531C17.6686 15.6552 17.6686 14.344 17.5168 13.046C17.482 12.749 17.2384 12.5044 16.9295 12.4698ZM12.9046 10.9791C14.2865 10.8247 15.7142 10.8247 17.0962 10.9791C18.087 11.0899 18.8894 11.8698 19.0066 12.8718C19.172 14.2855 19.172 15.7136 19.0066 17.1274C18.8894 18.1293 18.087 18.9093 17.0962 19.02C15.7142 19.1744 14.2865 19.1744 12.9046 19.02C11.9138 18.9093 11.1113 18.1293 10.9941 17.1274C10.8288 15.7136 10.8288 14.2855 10.9941 12.8718C11.1113 11.8699 11.9138 11.0899 12.9046 10.9791Z" fill="black"/>
</svg>
